:SAMPLES-PER-SECOND 30
:FRAME-RANGE 1-2775
:FULLY-SPECIFIED
:DEGREES
1041
root  75.3659 39.0525 -11.1511 -179.818 -35.1616 -178.844
RightUpLeg  -22.4322 16.5488 -8.42388
RightLeg  19.4646 -2.88784 -1.33614
RightFoot  -7.11808 -0.381442 9.01108
RightToes  1.218e-010 1.26228e-014 -6.01869e-014
Spine  -5.05688 -0.00566051 -2.12295
Spine1  9.07218 0.560267 -2.31988
HEad  1.71315 51.554 -11.6594
LeftShoulder1  1.1489 -0.910744 -21.106
LeftArm  21.7017 -1.18218 -57.2927
LeftForeArm  23.6263 -23.9741 -3.88704
LeftHand  -0.0594802 4.47325 5.04114
RightShoulder  1.48415 1.16275 27.1964
RightArm  -30.7418 -2.5547 45.0236
RightForeArm  62.3686 -5.11119 0.687725
RightHand  0.185237 -6.65632 -18.2342
LeftUpLeg  -3.18038 0.70426 -7.3796
LeftLeg  17.3488 -0.989501 0.617902
LeftFoot  -15.1928 0.334199 7.20984
LeftToes  5.08156e-010 -6.90346e-011 -6.33378e-011
1042
root  74.9061 39.0192 -11.9367 -179.601 -36.5865 -178.647
RightUpLeg  -22.9223 12.1898 -6.75569
RightLeg  13.3579 -1.26371 -0.607635
RightFoot  -6.83864 -0.458573 10.45
RightToes  1.218e-010 1.26228e-014 -6.01869e-014
Spine  -5.52606 -0.242244 -2.11424
Spine1  9.4675 0.347329 -1.97641
HEad  2.12811 51.1083 -11.0039
LeftShoulder1  1.14693 -0.930441 -20.9213
LeftArm  20.0277 -1.56257 -56.9777
LeftForeArm  24.4392 -25.1646 -4.09608
LeftHand  -0.058594 4.51414 5.15038
RightShoulder  1.46524 1.09406 27.2854
RightArm  -31.0227 -5.353 43.7381
RightForeArm  62.1505 -5.10847 0.627097
RightHand  0.230122 -6.95962 -18.074
LeftUpLeg  -1.83498 0.749601 -6.97221
LeftLeg  17.0707 -2.35498 0.295228
LeftFoot  -16.1409 0.408714 7.42323
LeftToes  5.08156e-010 -6.90346e-011 -6.33378e-011
1043
root  74.4275 38.9562 -12.7437 -179.265 -37.7672 -178.534
RightUpLeg  -22.9278 4.58144 -2.95381
RightLeg  7.459 1.9242 -1.01857
RightFoot  -6.36447 -0.594401 12.6288
RightToes  1.218e-010 1.26228e-014 -6.01869e-014
Spine  -6.15354 -0.456507 -2.0135
Spine1  9.98767 0.161942 -1.77055
HEad  2.91168 50.8843 -10.0102
LeftShoulder1  1.12706 -0.877612 -20.7786
LeftArm  18.4014 -1.84793 -56.497
LeftForeArm  25.3605 -26.0154 -4.23006
LeftHand  -0.0578098 4.50955 5.005
RightShoulder  1.31547 0.608236 27.5795
RightArm  -32.2741 -8.00017 42.9429
RightForeArm  62.9699 -4.96369 -0.0525087
RightHand  0.225231 -6.96509 -17.6945
LeftUpLeg  -0.568349 0.590815 -6.66075
LeftLeg  16.8422 -3.18761 0.194315
LeftFoot  -17.1053 0.487517 7.62668
LeftToes  5.08156e-010 -6.90346e-011 -6.33378e-011
1044
root  73.9244 38.8541 -13.5879 -179.02 -38.6771 -178.497
RightUpLeg  -23.0753 2.04267 -0.973396
RightLeg  2.8953 0.52001 -0.742831
RightFoot  -5.6589 -0.716056 13.5888
RightToes  1.218e-010 1.26228e-014 -6.01869e-014
Spine  -6.51124 -0.611382 -1.98458
Spine1  10.2482 -0.0141169 -1.52607
HEad  4.04924 50.8994 -8.97375
LeftShoulder1  1.09516 -0.760824 -20.7668
LeftArm  17.7842 -1.8433 -55.5715
LeftForeArm  25.154 -26.7078 -4.39163
LeftHand  -0.0670946 4.3258 5.2757
RightShoulder  1.25409 0.432188 27.5071
RightArm  -32.7416 -10.563 42.1362
RightForeArm  63.0278 -4.92087 -0.290539
RightHand  0.28163 -7.36916 -17.4437
LeftUpLeg  0.829233 0.447368 -6.36024
LeftLeg  16.7995 -3.8601 0.0715681
LeftFoot  -18.2148 0.562364 7.52703
LeftToes  5.08156e-010 -6.90346e-011 -6.33378e-011
1045
root  73.3716 38.6964 -14.4696 -178.727 -39.4073 -178.694
RightUpLeg  -23.4471 2.43661 -0.17408
RightLeg  1.12804 -1.69501 -0.544807
RightFoot  -5.57874 -0.706609 13.2265
RightToes  1.218e-010 1.26228e-014 -6.01869e-014
Spine  -6.87406 -0.69127 -1.77244
Spine1  10.5968 -0.0379493 -1.72255
HEad  4.8861 51.0202 -8.27066
LeftShoulder1  1.08941 -0.747653 -20.7084
LeftArm  17.7676 -1.88675 -54.6636
LeftForeArm  24.3192 -26.5196 -4.39509
LeftHand  -0.0720346 4.19973 5.25497
RightShoulder  1.15747 0.132662 27.6042
RightArm  -33.5455 -12.9667 41.3036
RightForeArm  63.3073 -4.82932 -0.766221
RightHand  0.245731 -7.23065 -16.5698
LeftUpLeg  2.34468 0.323329 -6.24437
LeftLeg  16.9785 -4.39702 -0.0789966
LeftFoot  -19.4628 0.644066 7.41101
LeftToes  5.08156e-010 -6.90346e-011 -6.33378e-011
1046
root  72.768 38.4924 -15.3775 -178.402 -40.214 -179.001
RightUpLeg  -24.0307 2.83496 0.291012
RightLeg  2.43041 -1.58457 -0.460489
RightFoot  -5.69196 -0.707597 13.494
RightToes  1.218e-010 1.26228e-014 -6.01869e-014
Spine  -6.91535 -0.767884 -1.65282
Spine1  10.6507 -0.147406 -1.71038
HEad  5.1918 51.2809 -8.30197
LeftShoulder1  1.03305 -0.516678 -20.8671
LeftArm  18.6376 -2.11201 -54.1913
LeftForeArm  22.8306 -25.2367 -4.19654
LeftHand  -0.0664263 4.38657 5.422
RightShoulder  1.08358 -0.0616318 27.3162
RightArm  -33.8522 -15.3234 40.5244
RightForeArm  63.0121 -4.81048 -0.936394
RightHand  0.279206 -7.52735 -16.1515
LeftUpLeg  3.70339 -0.0744679 -6.23486
LeftLeg  17.7665 -4.82375 -0.279193
LeftFoot  -20.7683 0.699051 6.95306
LeftToes  5.08156e-010 -6.90346e-011 -6.33378e-011
1047
root  72.1242 38.3771 -16.285 -178.244 -41.4635 -178.997
RightUpLeg  -24.2681 3.77894 0.679582
RightLeg  5.01324 -0.122709 -0.843875
RightFoot  -4.32903 -0.764189 11.9486
RightToes  1.218e-010 1.26228e-014 -6.01869e-014
Spine  -6.9233 -0.924021 -1.19713
Spine1  10.8778 -0.508229 -1.32916
HEad  4.44025 51.4928 -9.44332
LeftShoulder1  1.0334 -0.488614 -21.0903
LeftArm  20.299 -1.94717 -53.7674
LeftForeArm  20.7012 -23.528 -3.9771
LeftHand  -0.061386 4.49108 5.42599
RightShoulder  0.99897 -0.291778 27.0278
RightArm  -33.8802 -17.635 39.5893
RightForeArm  62.3802 -4.83118 -0.945003
RightHand  0.269116 -7.532 -15.6182
LeftUpLeg  5.0827 -1.00842 -5.94016
LeftLeg  18.4045 -5.24338 -0.622912
LeftFoot  -21.2307 0.665879 6.21345
LeftToes  5.08156e-010 -6.90346e-011 -6.33378e-011
1048
root  71.4473 38.453 -17.1844 -178.388 -43.0482 -178.243
RightUpLeg  -24.2953 5.22592 1.34253
RightLeg  6.83135 0.459209 -1.67443
RightFoot  0.337281 -0.997299 9.75187
RightToes  1.218e-010 1.26228e-014 -6.01869e-014
Spine  -7.29774 -0.967488 0.230341
Spine1  11.3746 -0.930368 -0.630199
HEad  3.14309 51.5242 -11.1885
LeftShoulder1  1.11511 -0.780041 -21.1529
LeftArm  20.8576 -1.2756 -53.5529
LeftForeArm  19.8353 -21.1232 -4.76209
LeftHand  -0.0574412 4.65104 5.71015
RightShoulder  0.939337 -0.473772 27.035
RightArm  -33.5743 -20.0657 38.2866
RightForeArm  60.9984 -4.90832 -0.774126
RightHand  0.275876 -7.60818 -15.457
LeftUpLeg  6.53129 -2.91382 -5.14421
LeftLeg  18.2161 -5.14864 -0.873333
LeftFoot  -20.287 0.502892 4.86653
LeftToes  5.08156e-010 -6.90346e-011 -6.33378e-011
